<mxfile host="Electron" modified="2024-01-24T03:22:16.817Z" agent="Mozilla/5.0 (Macintosh; Intel Mac OS X 10_15_7) AppleWebKit/537.36 (KHTML, like Gecko) draw.io/22.1.18 Chrome/120.0.6099.199 Electron/28.1.2 Safari/537.36" etag="J944_sBlfEYUp0N2Pd4b" version="22.1.18" type="device">
  <diagram name="第 1 页" id="Hvlb4z3VNub0-QKdbvLu">
    <mxGraphModel dx="1140" dy="726" grid="1" gridSize="10" guides="1" tooltips="1" connect="1" arrows="1" fold="1" page="1" pageScale="1" pageWidth="1600" pageHeight="1200" math="0" shadow="0">
      <root>
        <mxCell id="0" />
        <mxCell id="1" parent="0" />
        <mxCell id="EsLYRpjC3101yUTi2n-E-1" value="&quot;+&quot;" style="rounded=0;whiteSpace=wrap;html=1;fontSize=24;" vertex="1" parent="1">
          <mxGeometry x="360" y="470" width="80" height="40" as="geometry" />
        </mxCell>
        <mxCell id="EsLYRpjC3101yUTi2n-E-25" value="&quot;0&quot;" style="rounded=0;whiteSpace=wrap;html=1;fontSize=24;" vertex="1" parent="1">
          <mxGeometry x="830" y="390" width="80" height="40" as="geometry" />
        </mxCell>
        <mxCell id="EsLYRpjC3101yUTi2n-E-28" style="edgeStyle=orthogonalEdgeStyle;rounded=0;orthogonalLoop=1;jettySize=auto;html=1;strokeWidth=3;" edge="1" parent="1" source="EsLYRpjC3101yUTi2n-E-26">
          <mxGeometry relative="1" as="geometry">
            <mxPoint x="1140" y="490" as="targetPoint" />
          </mxGeometry>
        </mxCell>
        <mxCell id="EsLYRpjC3101yUTi2n-E-26" value="&quot;1&quot;-&quot;9&quot;" style="rounded=0;whiteSpace=wrap;html=1;fontSize=24;" vertex="1" parent="1">
          <mxGeometry x="720" y="470" width="80" height="40" as="geometry" />
        </mxCell>
        <mxCell id="EsLYRpjC3101yUTi2n-E-36" value="" style="endArrow=classic;html=1;rounded=0;entryX=0;entryY=0.5;entryDx=0;entryDy=0;strokeWidth=3;" edge="1" parent="1" target="EsLYRpjC3101yUTi2n-E-26">
          <mxGeometry width="50" height="50" relative="1" as="geometry">
            <mxPoint x="600" y="490" as="sourcePoint" />
            <mxPoint x="640" y="490" as="targetPoint" />
          </mxGeometry>
        </mxCell>
        <mxCell id="EsLYRpjC3101yUTi2n-E-38" value="" style="curved=1;endArrow=none;html=1;rounded=0;endFill=0;strokeWidth=3;" edge="1" parent="1">
          <mxGeometry width="50" height="50" relative="1" as="geometry">
            <mxPoint x="640" y="490" as="sourcePoint" />
            <mxPoint x="680" y="450" as="targetPoint" />
            <Array as="points">
              <mxPoint x="680" y="490" />
            </Array>
          </mxGeometry>
        </mxCell>
        <mxCell id="EsLYRpjC3101yUTi2n-E-40" value="" style="curved=1;endArrow=none;html=1;rounded=0;strokeWidth=3;endFill=0;" edge="1" parent="1">
          <mxGeometry width="50" height="50" relative="1" as="geometry">
            <mxPoint x="680" y="450" as="sourcePoint" />
            <mxPoint x="720" y="410" as="targetPoint" />
            <Array as="points">
              <mxPoint x="680" y="410" />
            </Array>
          </mxGeometry>
        </mxCell>
        <mxCell id="EsLYRpjC3101yUTi2n-E-41" value="" style="curved=1;endArrow=none;html=1;rounded=0;strokeWidth=3;endFill=0;" edge="1" parent="1">
          <mxGeometry width="50" height="50" relative="1" as="geometry">
            <mxPoint x="840" y="530" as="sourcePoint" />
            <mxPoint x="880" y="490" as="targetPoint" />
            <Array as="points">
              <mxPoint x="840" y="490" />
            </Array>
          </mxGeometry>
        </mxCell>
        <mxCell id="EsLYRpjC3101yUTi2n-E-42" value="" style="curved=1;endArrow=none;html=1;rounded=0;endFill=0;strokeWidth=3;" edge="1" parent="1">
          <mxGeometry width="50" height="50" relative="1" as="geometry">
            <mxPoint x="880" y="570" as="sourcePoint" />
            <mxPoint x="840" y="530" as="targetPoint" />
            <Array as="points">
              <mxPoint x="840" y="570" />
            </Array>
          </mxGeometry>
        </mxCell>
        <mxCell id="EsLYRpjC3101yUTi2n-E-43" value="" style="curved=1;endArrow=none;html=1;rounded=0;strokeWidth=3;endFill=0;" edge="1" parent="1">
          <mxGeometry width="50" height="50" relative="1" as="geometry">
            <mxPoint x="1000" y="490" as="sourcePoint" />
            <mxPoint x="1040" y="530" as="targetPoint" />
            <Array as="points">
              <mxPoint x="1040" y="490" />
            </Array>
          </mxGeometry>
        </mxCell>
        <mxCell id="EsLYRpjC3101yUTi2n-E-44" value="" style="curved=1;endArrow=none;html=1;rounded=0;endFill=0;strokeWidth=3;" edge="1" parent="1">
          <mxGeometry width="50" height="50" relative="1" as="geometry">
            <mxPoint x="1000" y="570" as="sourcePoint" />
            <mxPoint x="1040" y="530" as="targetPoint" />
            <Array as="points">
              <mxPoint x="1040" y="570" />
            </Array>
          </mxGeometry>
        </mxCell>
        <mxCell id="EsLYRpjC3101yUTi2n-E-45" value="" style="endArrow=none;html=1;rounded=0;strokeWidth=3;endFill=0;startArrow=classic;startFill=1;" edge="1" parent="1" source="EsLYRpjC3101yUTi2n-E-27">
          <mxGeometry width="50" height="50" relative="1" as="geometry">
            <mxPoint x="880" y="570" as="sourcePoint" />
            <mxPoint x="1000" y="570" as="targetPoint" />
          </mxGeometry>
        </mxCell>
        <mxCell id="EsLYRpjC3101yUTi2n-E-46" value="" style="endArrow=classic;html=1;rounded=0;strokeWidth=3;" edge="1" parent="1" target="EsLYRpjC3101yUTi2n-E-25">
          <mxGeometry width="50" height="50" relative="1" as="geometry">
            <mxPoint x="720" y="410" as="sourcePoint" />
            <mxPoint x="780" y="400" as="targetPoint" />
          </mxGeometry>
        </mxCell>
        <mxCell id="EsLYRpjC3101yUTi2n-E-47" value="" style="endArrow=none;html=1;rounded=0;strokeWidth=3;" edge="1" parent="1" source="EsLYRpjC3101yUTi2n-E-25">
          <mxGeometry width="50" height="50" relative="1" as="geometry">
            <mxPoint x="940" y="440" as="sourcePoint" />
            <mxPoint x="1020" y="410" as="targetPoint" />
          </mxGeometry>
        </mxCell>
        <mxCell id="EsLYRpjC3101yUTi2n-E-49" value="" style="endArrow=none;html=1;rounded=0;strokeWidth=3;" edge="1" parent="1" target="EsLYRpjC3101yUTi2n-E-27">
          <mxGeometry width="50" height="50" relative="1" as="geometry">
            <mxPoint x="880" y="570" as="sourcePoint" />
            <mxPoint x="1000" y="570" as="targetPoint" />
          </mxGeometry>
        </mxCell>
        <mxCell id="EsLYRpjC3101yUTi2n-E-27" value="&quot;0&quot;-&quot;9&quot;" style="rounded=0;whiteSpace=wrap;html=1;fontSize=24;" vertex="1" parent="1">
          <mxGeometry x="900" y="550" width="80" height="40" as="geometry" />
        </mxCell>
        <mxCell id="EsLYRpjC3101yUTi2n-E-50" value="" style="curved=1;endArrow=none;html=1;rounded=0;strokeWidth=3;endFill=0;" edge="1" parent="1">
          <mxGeometry width="50" height="50" relative="1" as="geometry">
            <mxPoint x="1020" y="410" as="sourcePoint" />
            <mxPoint x="1060" y="450" as="targetPoint" />
            <Array as="points">
              <mxPoint x="1060" y="410" />
            </Array>
          </mxGeometry>
        </mxCell>
        <mxCell id="EsLYRpjC3101yUTi2n-E-51" value="" style="curved=1;endArrow=none;html=1;rounded=0;endFill=0;strokeWidth=3;" edge="1" parent="1">
          <mxGeometry width="50" height="50" relative="1" as="geometry">
            <mxPoint x="1100" y="490" as="sourcePoint" />
            <mxPoint x="1060" y="450" as="targetPoint" />
            <Array as="points">
              <mxPoint x="1060" y="490" />
            </Array>
          </mxGeometry>
        </mxCell>
        <mxCell id="EsLYRpjC3101yUTi2n-E-52" value="" style="endArrow=classic;html=1;rounded=0;strokeWidth=3;" edge="1" parent="1" target="EsLYRpjC3101yUTi2n-E-1">
          <mxGeometry width="50" height="50" relative="1" as="geometry">
            <mxPoint x="280" y="490" as="sourcePoint" />
            <mxPoint x="320" y="480" as="targetPoint" />
          </mxGeometry>
        </mxCell>
        <mxCell id="EsLYRpjC3101yUTi2n-E-53" value="" style="endArrow=classic;html=1;rounded=0;strokeWidth=3;" edge="1" parent="1">
          <mxGeometry width="50" height="50" relative="1" as="geometry">
            <mxPoint x="440" y="489.44" as="sourcePoint" />
            <mxPoint x="520" y="489.44" as="targetPoint" />
          </mxGeometry>
        </mxCell>
      </root>
    </mxGraphModel>
  </diagram>
</mxfile>
